HIERARCHY
ROOT hips
{
	OFFSET 0.000000 104.274902 0.000000
	CHANNELS 6 Xposition Yposition Zposition Xrotation Yrotation Zrotation
	JOINT spine
	{
		OFFSET 0.000000 10.181549 0.131524
		CHANNELS 6 Xposition Yposition Zposition Xrotation Yrotation Zrotation
		JOINT chest
		{
			OFFSET 0.000000 9.893990 -1.470706
			CHANNELS 3 Xrotation Yrotation Zrotation
			JOINT upperChest
			{
				OFFSET 0.000000 9.220787 -1.370637
				CHANNELS 3 Xrotation Yrotation Zrotation
				JOINT neck
				{
					OFFSET 0.000000 16.740372 -2.049022
					CHANNELS 6 Xposition Yposition Zposition Xrotation Yrotation Zrotation
					JOINT head
					{
						OFFSET 0.000000 9.617859 1.684976
						CHANNELS 6 Xposition Yposition Zposition Xrotation Yrotation Zrotation
						JOINT headEnd
						{
							OFFSET 0.000000 22.037384 7.501072
							CHANNELS 6 Xposition Yposition Zposition Xrotation Yrotation Zrotation
							End Site
							{
								OFFSET 0.000000 23.106567 -2.828246
							}
						}
					}
				}
				JOINT rightShoulder
				{
					OFFSET -4.570000 11.014877 -2.160840
					CHANNELS 6 Xposition Yposition Zposition Xrotation Yrotation Zrotation
					JOINT rightUpperArm
					{
						OFFSET -10.592867 -0.524796 -2.232105
						CHANNELS 3 Xrotation Yrotation Zrotation
						JOINT rightLowerArm
						{
							OFFSET -27.841497 0.000000 -0.000002
							CHANNELS 3 Xrotation Yrotation Zrotation
							JOINT rightHand
							{
								OFFSET -28.328812 0.000000 -0.000001
								CHANNELS 3 Xrotation Yrotation Zrotation
								JOINT rightThumbProximal
								{
									OFFSET -2.464798 -1.573990 2.681911
									CHANNELS 6 Xposition Yposition Zposition Xrotation Yrotation Zrotation
									JOINT rightThumbIntermediate
									{
										OFFSET -3.244781 -1.873383 1.873376
										CHANNELS 3 Xrotation Yrotation Zrotation
										JOINT rightThumbDistal
										{
											OFFSET -2.646263 -1.527817 1.527818
											CHANNELS 6 Xposition Yposition Zposition Xrotation Yrotation Zrotation
											JOINT rightHandThumb4
											{
												OFFSET -1.994591 -1.151581 1.151575
												CHANNELS 6 Xposition Yposition Zposition Xrotation Yrotation Zrotation
												End Site
												{
													OFFSET -1.860176 -1.142715 1.365483
												}
											}
										}
									}
								}
								JOINT rightIndexProximal
								{
									OFFSET -9.108299 -0.517883 2.259803
									CHANNELS 6 Xposition Yposition Zposition Xrotation Yrotation Zrotation
									JOINT rightIndexIntermediate
									{
										OFFSET -3.699997 0.000000 0.000000
										CHANNELS 3 Xrotation Yrotation Zrotation
										JOINT rightIndexDistal
										{
											OFFSET -2.850006 0.000000 0.000000
											CHANNELS 3 Xrotation Yrotation Zrotation
											JOINT rightHandIndex4
											{
												OFFSET -2.772194 0.000000 0.000000
												CHANNELS 3 Xrotation Yrotation Zrotation
												End Site
												{
													OFFSET -2.772202 0.000000 -0.000484
												}
											}
										}
									}
								}
								JOINT rightMiddleProximal
								{
									OFFSET -9.532501 0.000000 -0.000000
									CHANNELS 6 Xposition Yposition Zposition Xrotation Yrotation Zrotation
									JOINT rightMiddleIntermediate
									{
										OFFSET -3.699997 0.000000 0.000000
										CHANNELS 3 Xrotation Yrotation Zrotation
										JOINT rightMiddleDistal
										{
											OFFSET -2.949997 0.000000 0.000000
											CHANNELS 3 Xrotation Yrotation Zrotation
											JOINT rightHandMiddle4
											{
												OFFSET -2.946594 0.000000 0.000000
												CHANNELS 3 Xrotation Yrotation Zrotation
												End Site
												{
													OFFSET -2.946602 0.000000 -0.000982
												}
											}
										}
									}
								}
								JOINT rightRingProximal
								{
									OFFSET -9.103600 -0.043106 -1.865100
									CHANNELS 6 Xposition Yposition Zposition Xrotation Yrotation Zrotation
									JOINT rightRingIntermediate
									{
										OFFSET -3.379303 0.000000 0.000000
										CHANNELS 3 Xrotation Yrotation Zrotation
										JOINT rightRingDistal
										{
											OFFSET -2.889694 0.000000 0.000000
											CHANNELS 3 Xrotation Yrotation Zrotation
											JOINT rightHandRing4
											{
												OFFSET -2.638802 0.000000 0.000000
												CHANNELS 3 Xrotation Yrotation Zrotation
												End Site
												{
													OFFSET -2.638802 0.000000 0.004218
												}
											}
										}
									}
								}
								JOINT rightLittleProximal
								{
									OFFSET -8.076698 -0.486725 -3.806299
									CHANNELS 6 Xposition Yposition Zposition Xrotation Yrotation Zrotation
									JOINT rightLittleIntermediate
									{
										OFFSET -3.600006 0.000000 0.000000
										CHANNELS 3 Xrotation Yrotation Zrotation
										JOINT rightLittleDistal
										{
											OFFSET -2.099998 0.000000 0.000000
											CHANNELS 3 Xrotation Yrotation Zrotation
											JOINT rightHandPinky4
											{
												OFFSET -2.115791 0.000000 0.000000
												CHANNELS 3 Xrotation Yrotation Zrotation
												End Site
												{
													OFFSET -2.115799 0.000000 0.000174
												}
											}
										}
									}
								}
							}
						}
					}
				}
				JOINT leftShoulder
				{
					OFFSET 4.570400 11.014679 -2.160816
					CHANNELS 6 Xposition Yposition Zposition Xrotation Yrotation Zrotation
					JOINT leftUpperArm
					{
						OFFSET 10.592373 -0.524597 -2.232116
						CHANNELS 3 Xrotation Yrotation Zrotation
						JOINT leftLowerArm
						{
							OFFSET 27.841488 0.000000 0.000001
							CHANNELS 3 Xrotation Yrotation Zrotation
							JOINT leftHand
							{
								OFFSET 28.328808 0.000000 -0.000000
								CHANNELS 3 Xrotation Yrotation Zrotation
								JOINT leftThumbProximal
								{
									OFFSET 2.466103 -1.576202 2.681698
									CHANNELS 6 Xposition Yposition Zposition Xrotation Yrotation Zrotation
									JOINT leftThumbIntermediate
									{
										OFFSET 3.243317 -1.872528 1.872530
										CHANNELS 3 Xrotation Yrotation Zrotation
										JOINT leftThumbDistal
										{
											OFFSET 2.647881 -1.528763 1.528754
											CHANNELS 6 Xposition Yposition Zposition Xrotation Yrotation Zrotation
											JOINT leftHandThumb4
											{
												OFFSET 1.998924 -1.154083 1.154080
												CHANNELS 6 Xposition Yposition Zposition Xrotation Yrotation Zrotation
												End Site
												{
													OFFSET 1.884041 -1.149155 1.337651
												}
											}
										}
									}
								}
								JOINT leftIndexProximal
								{
									OFFSET 9.109299 -0.518005 2.259900
									CHANNELS 6 Xposition Yposition Zposition Xrotation Yrotation Zrotation
									JOINT leftIndexIntermediate
									{
										OFFSET 3.699997 0.000000 0.000000
										CHANNELS 3 Xrotation Yrotation Zrotation
										JOINT leftIndexDistal
										{
											OFFSET 2.850006 0.000000 0.000000
											CHANNELS 3 Xrotation Yrotation Zrotation
											JOINT leftHandIndex4
											{
												OFFSET 2.774895 0.000000 0.000000
												CHANNELS 3 Xrotation Yrotation Zrotation
												End Site
												{
													OFFSET 2.774902 0.000000 -0.000072
												}
											}
										}
									}
								}
								JOINT leftMiddleProximal
								{
									OFFSET 9.533401 0.000000 0.000000
									CHANNELS 6 Xposition Yposition Zposition Xrotation Yrotation Zrotation
									JOINT leftMiddleIntermediate
									{
										OFFSET 3.699997 0.000000 0.000000
										CHANNELS 3 Xrotation Yrotation Zrotation
										JOINT leftMiddleDistal
										{
											OFFSET 2.949997 0.000000 0.000000
											CHANNELS 3 Xrotation Yrotation Zrotation
											JOINT leftHandMiddle4
											{
												OFFSET 2.952896 0.000000 0.000000
												CHANNELS 3 Xrotation Yrotation Zrotation
												End Site
												{
													OFFSET 2.952904 0.000000 0.000165
												}
											}
										}
									}
								}
								JOINT leftRingProximal
								{
									OFFSET 9.104500 -0.042999 -1.865101
									CHANNELS 6 Xposition Yposition Zposition Xrotation Yrotation Zrotation
									JOINT leftRingIntermediate
									{
										OFFSET 3.149994 0.000000 0.000000
										CHANNELS 3 Xrotation Yrotation Zrotation
										JOINT leftRingDistal
										{
											OFFSET 2.950005 0.000000 0.000000
											CHANNELS 3 Xrotation Yrotation Zrotation
											JOINT leftHandRing4
											{
												OFFSET 2.644302 0.000000 0.000000
												CHANNELS 3 Xrotation Yrotation Zrotation
												End Site
												{
													OFFSET 2.644302 0.000000 0.000083
												}
											}
										}
									}
								}
								JOINT leftLittleProximal
								{
									OFFSET 8.077805 -0.486893 -3.806302
									CHANNELS 6 Xposition Yposition Zposition Xrotation Yrotation Zrotation
									JOINT leftLittleIntermediate
									{
										OFFSET 3.600006 0.000000 0.000000
										CHANNELS 3 Xrotation Yrotation Zrotation
										JOINT leftLittleDistal
										{
											OFFSET 2.099998 0.000000 0.000000
											CHANNELS 3 Xrotation Yrotation Zrotation
											JOINT leftHandPinky4
											{
												OFFSET 2.125496 0.000000 0.000000
												CHANNELS 3 Xrotation Yrotation Zrotation
												End Site
												{
													OFFSET 2.125504 0.000000 -0.001254
												}
											}
										}
									}
								}
							}
						}
					}
				}
			}
		}
	}
	JOINT rightUpperLeg
	{
		OFFSET -8.207800 -6.751701 -1.599544
		CHANNELS 6 Xposition Yposition Zposition Xrotation Yrotation Zrotation
		JOINT rightLowerLeg
		{
			OFFSET 0.000004 -44.370152 0.345934
			CHANNELS 3 Xrotation Yrotation Zrotation
			JOINT rightFoot
			{
				OFFSET 0.000004 -44.423664 -3.043535
				CHANNELS 3 Xrotation Yrotation Zrotation
				JOINT rightToes
				{
					OFFSET 0.000001 -8.728691 10.710592
					CHANNELS 3 Xrotation Yrotation Zrotation
					JOINT rightToesEnd
					{
						OFFSET 0.000000 -0.000665 9.278101
						CHANNELS 3 Xrotation Yrotation Zrotation
						End Site
						{
							OFFSET 0.000000 -0.000665 9.278103
						}
					}
				}
			}
		}
	}
	JOINT leftUpperLeg
	{
		OFFSET 8.207800 -6.751701 -1.599544
		CHANNELS 6 Xposition Yposition Zposition Xrotation Yrotation Zrotation
		JOINT leftLowerLeg
		{
			OFFSET 0.000004 -44.370037 0.346940
			CHANNELS 3 Xrotation Yrotation Zrotation
			JOINT leftFoot
			{
				OFFSET 0.000004 -44.423611 -3.044388
				CHANNELS 3 Xrotation Yrotation Zrotation
				JOINT leftToes
				{
					OFFSET 0.000001 -8.728690 10.710592
					CHANNELS 3 Xrotation Yrotation Zrotation
					JOINT leftToesEnd
					{
						OFFSET 0.000000 -0.000680 9.278101
						CHANNELS 3 Xrotation Yrotation Zrotation
						End Site
						{
							OFFSET 0.000000 -0.000680 9.278101
						}
					}
				}
			}
		}
	}
}
MOTION
Frames: 4
Frame Time: 0.033333
-27.557014 90.267845 6.729539 3.817357 12.638194 -1.356554 -0.000000 10.181536 0.131523 12.347470 -6.495646 2.207781 4.196391 -1.120439 -0.287322 4.180889 -1.144980 -0.326204 0.000001 16.740379 -2.049022 -5.910178 0.651753 3.081055 -0.000001 9.617836 1.684989 -31.972320 8.893941 -7.108716 -0.000007 22.037384 7.501067 -0.000002 0.000000 -0.000000 -4.569998 11.014878 -2.160846 0.369620 11.931315 -6.168136 -45.679001 0.499058 3.214706 0.000148 121.979980 -0.000093 -21.169978 26.005867 37.263333 -2.464803 -1.573997 2.681913 -0.911922 10.394968 -7.978562 9.320332 -37.042554 6.117688 -2.646256 -1.527814 1.527807 -13.438099 -32.124265 -28.973963 -1.994602 -1.151580 1.151580 -0.000001 -0.000001 0.000001 -9.108315 -0.517889 2.259805 5.844097 -1.313860 51.374955 4.065493 -4.619499 82.693182 5.155793 -4.630456 96.153047 0.000001 -0.000001 0.000000 -9.532536 -0.000013 0.000001 2.394228 -6.449763 73.508777 6.061281 -4.440890 107.565733 1.294830 -3.224257 43.751146 0.000001 0.000001 -0.000001 -9.103605 -0.043097 -1.865099 1.061147 -7.061156 91.924483 4.352649 -4.647211 86.246732 1.163581 -3.081536 41.365279 0.000002 0.000000 0.000002 -8.076711 -0.486731 -3.806289 3.692904 -14.857951 97.846777 1.761090 -3.648733 51.517829 1.877935 -3.738451 53.331224 0.000000 0.000000 0.000005 4.570400 11.014677 -2.160817 2.464004 -32.985138 0.137355 11.552962 -28.038104 10.389405 0.000013 -101.258429 0.000018 -10.736843 -11.284638 -11.324037 2.466107 -1.576210 2.681701 -0.170815 -8.433534 8.524692 8.636760 34.869338 -5.593808 2.647873 -1.528775 1.528748 -13.719597 25.001716 27.825267 1.998913 -1.154081 1.154077 0.000001 0.000003 0.000005 9.109310 -0.517994 2.259903 6.252700 2.240136 -51.174479 5.106766 5.803852 -82.679324 6.478332 5.817637 -96.164781 0.000001 0.000001 -0.000002 9.533425 0.000006 0.000000 3.333929 7.702612 -74.226090 7.617238 5.579228 -107.597363 1.555586 3.976735 -42.716635 -0.000000 -0.000000 -0.000001 9.104507 -0.043010 -1.865098 2.435891 8.402399 -93.137621 5.440119 5.836855 -85.965621 1.416721 3.821189 -40.674207 0.000003 -0.000001 0.000000 8.077805 -0.486888 -3.806300 5.309036 16.124845 -99.157237 2.200682 4.575945 -51.351719 2.278413 4.636852 -52.319485 -0.000001 -0.000001 -0.000004 -8.207805 -6.751719 -1.599546 -31.187030 2.550737 -18.548475 52.064162 -9.351286 -0.118602 -17.846690 -5.364236 17.281393 0.207505 -0.001324 0.363370 0.000000 0.000001 -0.000000 8.207799 -6.751708 -1.599553 -76.304544 4.440641 28.893978 104.760970 9.315476 0.589069 -6.473438 3.001600 1.539503 2.052742 -0.000010 0.000005 -0.000002 -0.000001 0.000001 
-25.060692 91.793694 6.802978 4.802791 13.528994 -1.161793 0.000000 10.181541 0.131525 11.019778 -8.508640 2.525071 4.075999 -1.491847 -0.613062 4.042398 -1.543801 -0.663436 0.000002 16.740351 -2.049021 -6.529417 0.603228 6.648300 -0.000004 9.617829 1.684988 -30.338963 12.979617 -8.665063 0.000000 22.037369 7.501069 -0.000000 -0.000001 0.000000 -4.570002 11.014858 -2.160842 -8.605226 10.688587 -7.358859 -53.682760 6.089577 4.433770 0.000210 114.838402 -0.000137 -23.099189 18.306954 20.133251 -2.464792 -1.574009 2.681914 -0.911936 10.394952 -7.978573 9.320371 -37.042561 6.117707 -2.646267 -1.527797 1.527804 -13.438103 -32.124258 -28.973932 -1.994575 -1.151602 1.151579 0.000000 -0.000006 -0.000000 -9.108301 -0.517897 2.259807 5.844093 -1.313845 51.374958 4.065498 -4.619501 82.693155 5.155775 -4.630439 96.153047 0.000002 0.000002 0.000005 -9.532504 -0.000010 0.000001 2.394221 -6.449745 73.508757 6.061270 -4.440890 107.565733 1.294824 -3.224257 43.751132 -0.000000 0.000001 0.000001 -9.103591 -0.043124 -1.865094 1.061151 -7.061150 91.924490 4.352642 -4.647212 86.246766 1.163582 -3.081535 41.365258 -0.000001 -0.000001 -0.000000 -8.076705 -0.486741 -3.806296 3.692888 -14.857965 97.846749 1.761111 -3.648750 51.517815 1.877936 -3.738453 53.331241 0.000001 0.000001 0.000003 4.570400 11.014675 -2.160816 3.173040 -33.757985 2.493572 11.369595 -23.386011 16.273472 0.000080 -106.652782 0.000066 -10.864509 -13.910432 -1.746394 2.466100 -1.576220 2.681690 -0.170825 -8.433531 8.524698 9.585752 35.437999 -7.111840 2.647888 -1.528733 1.528743 -13.756347 26.095682 27.774210 1.998928 -1.154093 1.154066 0.000001 0.000006 0.000005 9.109297 -0.517992 2.259898 6.332941 2.344407 -52.488682 5.106753 5.803867 -82.679337 6.478336 5.817649 -96.164767 0.000001 0.000003 0.000001 9.533416 0.000009 -0.000005 3.333917 7.702630 -74.226090 7.617234 5.579222 -107.597384 1.652312 4.078773 -44.093710 0.000001 0.000001 0.000000 9.104509 -0.042993 -1.865105 2.374132 8.363808 -92.506136 5.479284 5.839451 -86.350680 1.476874 3.889966 -41.569071 -0.000000 -0.000002 0.000000 8.077793 -0.486873 -3.806304 5.241311 16.124212 -98.483876 2.213321 4.585992 -51.509984 2.388381 4.719452 -53.667696 -0.000002 -0.000000 -0.000000 -8.207801 -6.751722 -1.599540 -28.665993 1.476181 -20.618466 45.849315 -9.368045 -0.189803 -14.922449 -4.845186 17.765153 -1.037770 -0.000004 0.000001 0.000000 0.000001 -0.000000 8.207798 -6.751706 -1.599546 -80.552164 0.342363 33.224810 107.828743 8.826610 0.761520 -9.691623 5.393754 3.360927 2.341964 0.000009 -0.000007 0.000000 -0.000000 0.000002 
-21.887819 94.758408 6.850511 6.257146 14.697220 -0.115870 -0.000003 10.181527 0.131525 8.916780 -10.067452 1.906163 3.820596 -1.799781 -1.121942 3.764646 -1.879711 -1.179776 0.000001 16.740349 -2.049024 -8.575878 0.015196 10.722255 -0.000004 9.617831 1.684980 -26.459914 15.613121 -10.522194 0.000000 22.037354 7.501073 -0.000002 0.000000 0.000000 -4.570004 11.014855 -2.160843 -20.153998 7.974030 -8.647022 -57.903694 8.535850 13.474105 0.000200 111.398760 -0.000149 -33.257940 11.726663 1.359169 -2.464804 -1.573992 2.681916 -0.911938 10.394966 -7.978542 9.320351 -37.042547 6.117685 -2.646260 -1.527796 1.527809 -13.438098 -32.124251 -28.973939 -1.994605 -1.151585 1.151578 0.000002 -0.000001 -0.000000 -9.108309 -0.517869 2.259808 5.844103 -1.313845 51.374955 4.065486 -4.619496 82.693175 5.155790 -4.630450 96.153047 -0.000005 0.000003 -0.000001 -9.532509 0.000001 0.000007 2.394216 -6.449747 73.508777 6.061273 -4.440910 107.565753 1.294832 -3.224256 43.751132 0.000002 -0.000000 0.000001 -9.103582 -0.043085 -1.865096 1.061144 -7.061137 91.924497 4.352635 -4.647210 86.246732 1.163584 -3.081532 41.365261 0.000000 -0.000001 -0.000001 -8.076719 -0.486703 -3.806296 3.692889 -14.857960 97.846756 1.761116 -3.648736 51.517808 1.877920 -3.738446 53.331227 -0.000002 -0.000000 0.000000 4.570397 11.014699 -2.160815 3.595079 -34.507745 3.848034 12.373777 -20.760782 22.401125 0.000033 -110.078348 0.000036 -5.852768 -14.658042 2.244215 2.466094 -1.576219 2.681697 -0.170824 -8.433537 8.524696 14.302544 37.786724 -14.824873 2.647875 -1.528725 1.528751 -14.071479 31.455808 27.604420 1.998913 -1.154071 1.154078 0.000002 -0.000000 0.000002 9.109288 -0.517990 2.259901 6.795734 2.796787 -58.933597 5.106756 5.803857 -82.679324 6.478326 5.817654 -96.164781 0.000000 0.000001 0.000001 9.533399 0.000021 0.000000 3.333927 7.702610 -74.226111 7.617222 5.579227 -107.597363 2.160675 4.543774 -50.848375 0.000000 0.000001 0.000001 9.104497 -0.043004 -1.865099 2.078016 8.165716 -89.412524 5.671476 5.848492 -88.238053 1.787047 4.213043 -45.957252 -0.000000 -0.000001 0.000000 8.077799 -0.486869 -3.806298 4.907858 16.125612 -95.182702 2.275707 4.634752 -52.285962 2.954142 5.085880 -60.280408 0.000000 -0.000000 0.000001 -8.207806 -6.751724 -1.599545 -26.013295 -2.519004 -24.369097 35.279693 -7.694854 -0.388339 -6.636718 -4.831608 16.393192 -7.170372 0.000001 -0.000003 -0.000000 -0.000000 -0.000001 8.207798 -6.751716 -1.599539 -81.720994 -0.392884 36.470212 105.627817 8.389564 0.820212 -10.975445 6.079722 4.209680 1.425388 0.000003 -0.000010 -0.000001 -0.000002 0.000003 
-18.233992 98.301674 6.620553 7.662017 13.341479 2.250215 0.000001 10.181544 0.131525 6.508973 -9.457590 0.157568 3.497103 -1.704254 -1.433206 3.440264 -1.784975 -1.485281 0.000003 16.740385 -2.049022 -11.001603 -0.350540 11.897548 -0.000003 9.617863 1.684980 -21.668186 15.655379 -11.303783 -0.000004 22.037384 7.501088 -0.000000 -0.000001 -0.000000 -4.570002 11.014898 -2.160842 -25.506874 5.026770 -10.346840 -65.838229 5.087183 26.205914 0.000243 105.805470 -0.000178 -33.319647 18.517003 -14.244847 -2.464795 -1.574022 2.681910 -0.911935 10.394962 -7.978559 9.320351 -37.042547 6.117702 -2.646271 -1.527810 1.527826 -13.438098 -32.124251 -28.973929 -1.994609 -1.151583 1.151571 0.000001 -0.000008 -0.000002 -9.108294 -0.517900 2.259802 5.844100 -1.313844 51.374958 4.065487 -4.619505 82.693175 5.155790 -4.630449 96.153047 0.000002 -0.000002 -0.000001 -9.532494 -0.000010 0.000003 2.394222 -6.449752 73.508770 6.061273 -4.440893 107.565746 1.294828 -3.224251 43.751135 -0.000003 0.000002 -0.000002 -9.103619 -0.043112 -1.865102 1.061146 -7.061133 91.924497 4.352633 -4.647220 86.246725 1.163586 -3.081529 41.365265 -0.000002 0.000000 -0.000001 -8.076707 -0.486736 -3.806298 3.692893 -14.857956 97.846749 1.761103 -3.648742 51.517805 1.877920 -3.738454 53.331230 0.000001 0.000002 -0.000001 4.570399 11.014668 -2.160814 3.576073 -34.446673 3.792693 13.409143 -20.755340 26.235248 0.000042 -111.294060 0.000043 -2.607329 -18.471065 6.159256 2.466101 -1.576211 2.681700 -0.170831 -8.433527 8.524695 20.391965 39.727515 -26.111321 2.647879 -1.528753 1.528749 -15.208927 39.043523 27.828868 1.998913 -1.154081 1.154071 0.000003 0.000000 0.000002 9.109282 -0.517997 2.259896 7.667393 3.190549 -68.106432 5.106764 5.803858 -82.679310 6.478328 5.817652 -96.164774 -0.000001 -0.000001 0.000000 9.533406 0.000017 -0.000003 3.333921 7.702611 -74.226090 7.617221 5.579227 -107.597377 2.970903 5.095393 -60.469359 0.000002 -0.000001 -0.000002 9.104506 -0.042989 -1.865104 1.676396 7.860619 -85.016744 5.945104 5.850490 -90.922515 2.269131 4.629679 -52.204591 -0.000001 0.000001 -0.000002 8.077822 -0.486895 -3.806306 4.420793 16.162080 -90.483115 2.365544 4.702628 -53.389803 3.823926 5.489978 -69.697149 -0.000000 0.000000 0.000005 -8.207804 -6.751711 -1.599539 -25.169472 -4.640325 -27.055914 24.984823 -8.227425 -0.441651 9.310852 -2.628615 10.634387 -12.457827 0.009697 1.938174 0.000000 0.000001 -0.000000 8.207802 -6.751701 -1.599550 -76.475361 2.927049 37.061781 97.177158 7.861633 0.774772 -8.369459 4.616276 1.257635 1.000726 -0.000000 0.000003 -0.000001 -0.000001 0.000001 
